<svg xmlns="http://www.w3.org/2000/svg" fill="none" viewBox="0 0 35 35"><g clip-path="url(#clip0_1_936)"><path fill="url(#paint0_linear_1_936)" d="M2.188 2.382C-.562 5.239 0 8.273 0 17.493c0 7.656-1.336 15.332 5.655 17.138 2.184.562 21.527.562 23.707-.003 2.911-.75 5.28-3.112 5.603-7.229.045-.574.045-19.228-.001-19.814C34.619 3.2 31.92.673 28.364.161c-.816-.118-.98-.153-5.162-.16C8.367.007 5.114-.654 2.188 2.38z"/><path fill="#fff" d="M17.497 4.578c-5.295 0-10.324-.471-12.244 4.458-.794 2.036-.678 4.68-.678 8.466 0 3.322-.107 6.444.678 8.464 1.916 4.932 6.985 4.46 12.241 4.46 5.07 0 10.299.527 12.243-4.46.795-2.056.678-4.661.678-8.464 0-5.05.278-8.308-2.17-10.756-2.48-2.479-5.832-2.168-10.754-2.168h.006zm-1.158 2.329C27.385 6.889 28.79 5.66 28.015 22.72c-.276 6.033-4.87 5.37-10.517 5.37-10.295 0-10.591-.294-10.591-10.594 0-10.42.816-10.583 9.432-10.592v.003zm8.056 2.145a1.55 1.55 0 1 0 0 3.1 1.55 1.55 0 0 0 0-3.1zm-6.898 1.813a6.636 6.636 0 0 0 0 13.272 6.634 6.634 0 0 0 6.634-6.635 6.635 6.635 0 0 0-6.634-6.637zm0 2.329c5.695 0 5.702 8.616 0 8.616-5.693 0-5.702-8.616 0-8.616z"/></g><defs><linearGradient id="paint0_linear_1_936" x1="2.255" x2="34.783" y1="32.765" y2="4.612" gradientUnits="userSpaceOnUse"><stop stop-color="#FD5"/><stop offset=".5" stop-color="#FF543E"/><stop offset="1" stop-color="#C837AB"/></linearGradient><clipPath id="clip0_1_936"><path fill="#fff" d="M0 0h35v35H0z"/></clipPath></defs></svg>